# This file uses centimeters as units for non-parametric coordinates.

mtllib 3DBalloon.mtl
g default
v -1.702907 9.714114 1.613280
v 1.702907 9.714114 1.613280
v -1.649131 13.205335 1.613280
v 1.649131 13.205335 1.613280
v -0.286806 13.974118 1.613280
v 0.286806 13.974118 1.613280
v 0.886408 13.781925 1.613280
v -0.886408 13.781925 1.613280
v 1.224500 13.589734 1.613280
v -1.224500 13.589734 1.613280
v 1.466791 13.397535 1.613280
v -1.466791 13.397535 1.613280
v 2.115190 12.332530 1.613280
v -2.115190 12.332530 1.613280
v 2.235489 11.459725 1.613280
v -2.235489 11.459725 1.613280
v 2.079339 10.586918 1.613280
v -2.079339 10.586918 1.613280
v 1.804185 12.987135 1.613280
v -1.804185 12.987135 1.613280
v 1.939322 12.768933 1.613280
v -1.939322 12.768933 1.613280
v 2.054841 12.550731 1.613280
v -2.054841 12.550731 1.613280
v 2.168966 12.114329 1.613280
v -2.168966 12.114329 1.613280
v 2.222742 11.896128 1.613280
v -2.222742 11.896128 1.613280
v 2.247439 11.677926 1.613280
v -2.247439 11.677926 1.613280
v 2.211190 11.241523 1.613280
v -2.211190 11.241523 1.613280
v 2.174409 11.023322 1.613280
v -2.174409 11.023322 1.613280
v 2.133115 10.805120 1.613280
v -2.133115 10.805120 1.613280
v 2.007638 10.368717 1.613280
v -2.007638 10.368717 1.613280
v 1.935936 10.150516 1.613280
v -1.935936 10.150516 1.613280
v 1.828385 9.932315 1.613280
v -1.828385 9.932315 1.613280
v 0.073963 8.472518 1.613280
v -0.073963 8.472518 1.613280
v 0.679392 8.679450 1.613280
v -0.679392 8.679450 1.613280
v 0.980256 8.886383 1.613280
v -0.980256 8.886383 1.613280
v 1.214194 9.093316 1.613280
v -1.214194 9.093316 1.613280
v 1.391911 9.300248 1.613280
v -1.391911 9.300248 1.613280
v 1.558653 9.507181 1.613280
v -1.558653 9.507181 1.613280
v -0.510134 8.582518 1.613280
v 0.510134 8.582518 1.613280
v 0.078893 8.331900 1.613280
v -0.078893 8.331900 1.613280
v 0.086290 8.243849 1.613280
v -0.086290 8.243849 1.613280
v 0.115053 8.174198 1.613280
v -0.115053 8.174198 1.613280
v 0.147925 8.107175 1.613280
v -0.147925 8.107175 1.613280
v 0.191481 8.063807 1.613280
v -0.191481 8.063807 1.613280
v 0.182806 8.028323 1.613280
v -0.182806 8.028323 1.613280
v 0.073963 7.988898 1.613280
v -0.073963 7.988898 1.613280
v -1.649131 13.205335 0.012428
v -1.804185 12.987135 0.012428
v -1.939322 12.768933 0.012428
v -2.054841 12.550731 0.012428
v -2.115190 12.332530 0.012428
v -2.168966 12.114329 0.012428
v -2.222742 11.896128 0.012428
v -2.247439 11.677926 0.012428
v -2.235489 11.459725 0.012428
v -2.211190 11.241523 0.012428
v -2.174409 11.023322 0.012428
v -2.133115 10.805120 0.012428
v -2.079339 10.586918 0.012428
v -2.007638 10.368717 0.012428
v -1.935936 10.150516 0.012428
v -1.828385 9.932315 0.012428
v -1.658422 9.714114 0.011801
v -1.517914 9.507181 0.011902
v -1.355501 9.300248 0.012008
v -1.182391 9.093316 0.012108
v -0.954515 8.886383 0.012218
v -0.661433 8.679450 0.012326
v -0.506249 8.585224 0.012421
v -0.071899 8.472518 0.012427
v -0.076692 8.331900 0.012427
v -0.083882 8.243849 0.012426
v -0.111843 8.174198 0.012425
v -0.143798 8.107175 0.012423
v -0.186138 8.063807 0.012419
v -0.177705 8.028323 0.012420
v -0.071899 7.988898 0.012427
v 0.071899 7.988898 0.012427
v 0.177705 8.028323 0.012420
v 0.186138 8.063807 0.012419
v 0.143798 8.107175 0.012423
v 0.111843 8.174198 0.012425
v 0.083882 8.243849 0.012426
v 0.076692 8.331900 0.012427
v 0.071899 8.472518 0.012427
v 0.506249 8.585224 0.012421
v 0.661433 8.679450 0.012326
v 0.954515 8.886383 0.012218
v 1.182391 9.093316 0.012108
v 1.355501 9.300248 0.012008
v 1.517914 9.507181 0.011902
v 1.658422 9.714114 0.011801
v 1.828385 9.932315 0.012428
v 1.935936 10.150516 0.012428
v 2.007638 10.368717 0.012428
v 2.079339 10.586918 0.012428
v 2.133115 10.805120 0.012428
v 2.174409 11.023322 0.012428
v 2.211190 11.241523 0.012428
v 2.235489 11.459725 0.012428
v 2.247439 11.677926 0.012428
v 2.222742 11.896128 0.012428
v 2.168966 12.114329 0.012428
v 2.115190 12.332530 0.012428
v 2.054841 12.550731 0.012428
v 1.939322 12.768933 0.012428
v 1.804185 12.987135 0.012428
v 1.649131 13.205335 0.012428
v 1.374786 13.397535 0.009759
v 1.224500 13.589734 0.012428
v 0.886408 13.781925 0.012428
v 0.286806 13.974118 0.012428
v -0.286806 13.974118 0.012428
v -0.886408 13.781925 0.012428
v -1.224500 13.589734 0.012428
v -1.374786 13.397535 0.009759
v -0.021742 7.988898 0.012427
v 0.021742 7.988898 0.012427
v 0.022367 7.988898 1.613280
v -0.022367 7.988898 1.613280
v -0.021742 4.125812 0.012427
v 0.021742 4.125812 0.012427
v 0.022367 4.125812 1.613280
v -0.022367 4.125812 1.613280
vt 0.375000 0.000000
vt 0.625000 0.000000
vt 0.375000 0.250000
vt 0.625000 0.250000
vt 0.375000 1.000000
vt 0.625000 1.000000
vt 0.375000 0.250000
vt 0.625000 0.250000
vt 0.625000 0.250000
vt 0.375000 0.250000
vt 0.625000 0.250000
vt 0.375000 0.250000
vt 0.625000 0.250000
vt 0.375000 0.250000
vt 0.625000 0.187500
vt 0.375000 0.187500
vt 0.625000 0.125000
vt 0.375000 0.125000
vt 0.625000 0.062500
vt 0.375000 0.062500
vt 0.625000 0.234375
vt 0.375000 0.234375
vt 0.625000 0.218750
vt 0.375000 0.218750
vt 0.625000 0.203125
vt 0.375000 0.203125
vt 0.625000 0.171875
vt 0.375000 0.171875
vt 0.625000 0.156250
vt 0.375000 0.156250
vt 0.625000 0.140625
vt 0.375000 0.140625
vt 0.625000 0.109375
vt 0.375000 0.109375
vt 0.625000 0.093750
vt 0.375000 0.093750
vt 0.625000 0.078125
vt 0.375000 0.078125
vt 0.625000 0.046875
vt 0.375000 0.046875
vt 0.625000 0.031250
vt 0.375000 0.031250
vt 0.625000 0.015625
vt 0.375000 0.015625
vt 0.625000 1.000000
vt 0.375000 1.000000
vt 0.625000 1.000000
vt 0.375000 1.000000
vt 0.625000 1.000000
vt 0.375000 1.000000
vt 0.625000 1.000000
vt 0.375000 1.000000
vt 0.625000 1.000000
vt 0.375000 1.000000
vt 0.625000 1.000000
vt 0.375000 1.000000
vt 0.375000 1.000000
vt 0.625000 1.000000
vt 0.625000 1.000000
vt 0.375000 1.000000
vt 0.625000 1.000000
vt 0.375000 1.000000
vt 0.625000 1.000000
vt 0.375000 1.000000
vt 0.625000 1.000000
vt 0.375000 1.000000
vt 0.625000 1.000000
vt 0.375000 1.000000
vt 0.625000 1.000000
vt 0.375000 1.000000
vt 0.625000 1.000000
vt 0.375000 1.000000
vt 0.250963 0.250000
vt 0.375000 0.374037
vt 0.250963 0.234375
vt 0.250963 0.218750
vt 0.250963 0.203125
vt 0.250963 0.187500
vt 0.250963 0.171875
vt 0.250963 0.156250
vt 0.250963 0.140625
vt 0.250963 0.125000
vt 0.250963 0.109375
vt 0.250963 0.093750
vt 0.250963 0.078125
vt 0.250963 0.062500
vt 0.250963 0.046875
vt 0.250963 0.031250
vt 0.250963 0.015625
vt 0.250914 0.000000
vt 0.375000 0.875914
vt 0.375000 0.875922
vt 0.375000 0.875930
vt 0.375000 0.875938
vt 0.375000 0.875947
vt 0.375000 0.875955
vt 0.375000 0.875962
vt 0.375000 0.875963
vt 0.375000 0.875963
vt 0.375000 0.875963
vt 0.375000 0.875963
vt 0.375000 0.875963
vt 0.375000 0.875962
vt 0.375000 0.875962
vt 0.375000 0.875963
vt 0.625000 0.875963
vt 0.625000 0.875962
vt 0.625000 0.875962
vt 0.625000 0.875963
vt 0.625000 0.875963
vt 0.625000 0.875963
vt 0.625000 0.875963
vt 0.625000 0.875963
vt 0.625000 0.875962
vt 0.625000 0.875955
vt 0.625000 0.875947
vt 0.625000 0.875938
vt 0.625000 0.875930
vt 0.625000 0.875922
vt 0.625000 0.875914
vt 0.749086 0.000000
vt 0.749037 0.015625
vt 0.749037 0.031250
vt 0.749037 0.046875
vt 0.749037 0.062500
vt 0.749037 0.078125
vt 0.749037 0.093750
vt 0.749037 0.109375
vt 0.749037 0.125000
vt 0.749037 0.140625
vt 0.749037 0.156250
vt 0.749037 0.171875
vt 0.749037 0.187500
vt 0.749037 0.203125
vt 0.749037 0.218750
vt 0.749037 0.234375
vt 0.625000 0.374037
vt 0.749037 0.250000
vt 0.625000 0.374244
vt 0.625000 0.374037
vt 0.625000 0.374037
vt 0.625000 0.374037
vt 0.375000 0.374037
vt 0.375000 0.374037
vt 0.375000 0.374037
vt 0.375000 0.374244
vt 0.375000 0.875963
vt 0.625000 0.875963
vt 0.625000 1.000000
vt 0.375000 1.000000
vt 0.375000 0.875963
vt 0.625000 0.875963
vt 0.625000 1.000000
vt 0.375000 1.000000
vn 0.000000 0.000000 1.000000
vn 0.000000 0.000000 1.000000
vn 0.000000 0.000000 1.000000
vn 0.000000 0.000000 1.000000
vn 0.000000 1.000000 0.000000
vn 0.000000 1.000000 0.000000
vn 0.000000 1.000000 0.000000
vn 0.000000 1.000000 0.000000
vn 0.000000 -1.000000 -0.000000
vn 0.000000 -1.000000 -0.000000
vn 0.000000 -1.000000 -0.000000
vn 0.000000 -1.000000 -0.000000
vn 0.828037 -0.560556 -0.011503
vn 0.828037 -0.560556 -0.011503
vn 0.863132 -0.504943 -0.006000
vn 0.863157 -0.504900 -0.005996
vn -0.828037 -0.560556 -0.011503
vn -0.828037 -0.560556 -0.011503
vn -0.863157 -0.504900 -0.005996
vn -0.863132 -0.504943 -0.006000
vn 0.000000 0.000000 1.000000
vn 0.000000 0.000000 1.000000
vn 0.000000 0.000000 1.000000
vn 0.000000 0.000000 1.000000
vn 0.730701 0.682627 -0.009830
vn 0.730482 0.682861 -0.009853
vn 0.671697 0.740575 -0.019286
vn 0.670244 0.741892 -0.019244
vn -0.671697 0.740575 -0.019286
vn -0.730482 0.682861 -0.009853
vn -0.730701 0.682627 -0.009830
vn -0.670244 0.741892 -0.019244
vn 0.000000 0.000000 1.000000
vn 0.000000 0.000000 1.000000
vn 0.000000 0.000000 1.000000
vn 0.000000 0.000000 1.000000
vn -0.379293 0.925277 0.000000
vn -0.379293 0.925277 0.000000
vn -0.305236 0.952277 0.000000
vn -0.305236 0.952277 0.000000
vn 0.379293 0.925277 0.000000
vn 0.379293 0.925277 0.000000
vn 0.305236 0.952277 0.000000
vn 0.305236 0.952277 0.000000
vn 0.000000 0.000000 1.000000
vn 0.000000 0.000000 1.000000
vn -0.584289 0.811502 -0.008421
vn -0.583935 0.811757 -0.008387
vn 0.583935 0.811757 -0.008387
vn 0.584289 0.811502 -0.008421
vn 0.000000 0.000000 1.000000
vn 0.000000 0.000000 1.000000
vn 0.000000 0.000000 1.000000
vn 0.000000 0.000000 1.000000
vn -0.967465 0.253005 0.000000
vn -0.967465 0.253005 0.000000
vn -0.927516 0.373783 0.000000
vn -0.927516 0.373783 0.000000
vn 0.967465 0.253005 0.000000
vn 0.967465 0.253005 0.000000
vn 0.927516 0.373783 0.000000
vn 0.927516 0.373783 0.000000
vn 0.000000 0.000000 1.000000
vn 0.000000 0.000000 1.000000
vn 0.000000 0.000000 1.000000
vn 0.000000 0.000000 1.000000
vn -0.996568 -0.082777 0.000000
vn -0.996568 -0.082777 0.000000
vn -0.999574 0.029197 0.000000
vn -0.999574 0.029197 0.000000
vn 0.996568 -0.082777 0.000000
vn 0.996568 -0.082777 0.000000
vn 0.999574 0.029197 0.000000
vn 0.999574 0.029197 0.000000
vn 0.000000 0.000000 1.000000
vn 0.000000 0.000000 1.000000
vn 0.000000 0.000000 1.000000
vn 0.000000 0.000000 1.000000
vn -0.961063 -0.276331 0.000000
vn -0.961063 -0.276331 0.000000
vn -0.977084 -0.212857 0.000000
vn -0.977084 -0.212857 0.000000
vn 0.961063 -0.276331 0.000000
vn 0.961063 -0.276331 0.000000
vn 0.977084 -0.212857 0.000000
vn 0.977084 -0.212857 0.000000
vn 0.000000 0.000000 1.000000
vn 0.000000 0.000000 1.000000
vn -0.832704 0.553718 0.000000
vn -0.832704 0.553718 0.000000
vn 0.832704 0.553718 0.000000
vn 0.832704 0.553718 0.000000
vn 0.000000 0.000000 1.000000
vn 0.000000 0.000000 1.000000
vn -0.867143 0.498059 0.000000
vn -0.867143 0.498059 0.000000
vn 0.867143 0.498059 0.000000
vn 0.867143 0.498059 0.000000
vn 0.000000 0.000000 1.000000
vn 0.000000 0.000000 1.000000
vn -0.970948 0.239291 0.000000
vn -0.970948 0.239291 0.000000
vn 0.970948 0.239291 0.000000
vn 0.970948 0.239291 0.000000
vn 0.000000 0.000000 1.000000
vn 0.000000 0.000000 1.000000
vn -0.984215 0.176979 0.000000
vn -0.984215 0.176979 0.000000
vn 0.984215 0.176979 0.000000
vn 0.984215 0.176979 0.000000
vn 0.000000 0.000000 1.000000
vn 0.000000 0.000000 1.000000
vn -0.990347 -0.138610 0.000000
vn -0.990347 -0.138610 0.000000
vn 0.990347 -0.138610 0.000000
vn 0.990347 -0.138610 0.000000
vn 0.000000 0.000000 1.000000
vn 0.000000 0.000000 1.000000
vn -0.984371 -0.176110 0.000000
vn -0.984371 -0.176110 0.000000
vn 0.984371 -0.176110 0.000000
vn 0.984371 -0.176110 0.000000
vn 0.000000 0.000000 1.000000
vn 0.000000 0.000000 1.000000
vn -0.950023 -0.312180 0.000000
vn -0.950023 -0.312180 0.000000
vn 0.950023 -0.312180 0.000000
vn 0.950023 -0.312180 0.000000
vn 0.000000 0.000000 1.000000
vn 0.000000 0.000000 1.000000
vn -0.925007 -0.379949 0.000000
vn -0.925007 -0.379949 0.000000
vn 0.925007 -0.379949 0.000000
vn 0.925007 -0.379949 0.000000
vn 0.823629 -0.566705 -0.021916
vn 0.823629 -0.566705 -0.021916
vn 0.803226 -0.595327 -0.020371
vn 0.802835 -0.595855 -0.020342
vn 0.000000 0.000000 1.000000
vn 0.000000 0.000000 1.000000
vn -0.823629 -0.566705 -0.021916
vn -0.823629 -0.566705 -0.021916
vn -0.802835 -0.595855 -0.020342
vn -0.803226 -0.595327 -0.020371
vn 0.549962 -0.835164 -0.006562
vn 0.550299 -0.834942 -0.006581
vn 0.327384 -0.944889 -0.002159
vn 0.327179 -0.944960 -0.002156
vn -0.550299 -0.834942 -0.006581
vn -0.549962 -0.835164 -0.006562
vn -0.327179 -0.944960 -0.002156
vn -0.327384 -0.944889 -0.002159
vn 0.000000 0.000000 1.000000
vn 0.000000 0.000000 1.000000
vn 0.000000 0.000000 1.000000
vn 0.000000 0.000000 1.000000
vn 0.616594 -0.787221 -0.009737
vn 0.617349 -0.786628 -0.009770
vn -0.617350 -0.786628 -0.009770
vn -0.616594 -0.787221 -0.009737
vn 0.000000 0.000000 1.000000
vn 0.000000 0.000000 1.000000
vn 0.713104 -0.700918 -0.013992
vn 0.713934 -0.700072 -0.014029
vn -0.713934 -0.700072 -0.014029
vn -0.713104 -0.700918 -0.013992
vn 0.000000 0.000000 1.000000
vn 0.000000 0.000000 1.000000
vn 0.772490 -0.634785 -0.017522
vn 0.772670 -0.634566 -0.017546
vn -0.772670 -0.634566 -0.017545
vn -0.772490 -0.634785 -0.017522
vn 0.000000 0.000000 1.000000
vn 0.000000 0.000000 1.000000
vn 0.000000 0.000000 1.000000
vn 0.000000 0.000000 1.000000
vn 0.247849 -0.968798 -0.001279
vn 0.247849 -0.968798 -0.001279
vn -0.247849 -0.968798 -0.001279
vn -0.247849 -0.968798 -0.001279
vn 0.999402 0.034556 -0.001331
vn 0.999402 0.034556 -0.001331
vn 0.998589 0.053082 -0.001372
vn 0.998589 0.053080 -0.001372
vn 0.000000 0.000000 1.000000
vn 0.000000 0.000000 1.000000
vn 0.000000 0.000000 1.000000
vn 0.000000 0.000000 1.000000
vn -0.999402 0.034556 -0.001331
vn -0.999402 0.034556 -0.001331
vn -0.998589 0.053080 -0.001372
vn -0.998589 0.053082 -0.001372
vn 0.975373 0.220558 -0.001540
vn 0.975387 0.220494 -0.001540
vn 0.000000 0.000000 1.000000
vn 0.000000 0.000000 1.000000
vn -0.975387 0.220494 -0.001540
vn -0.975373 0.220558 -0.001540
vn 0.913725 0.406328 -0.001844
vn 0.913739 0.406298 -0.001844
vn 0.000000 0.000000 1.000000
vn 0.000000 0.000000 1.000000
vn -0.913739 0.406298 -0.001844
vn -0.913725 0.406328 -0.001844
vn 0.825808 0.563948 -0.002109
vn 0.825979 0.563697 -0.002109
vn 0.000000 0.000000 1.000000
vn 0.000000 0.000000 1.000000
vn -0.825979 0.563697 -0.002109
vn -0.825808 0.563948 -0.002109
vn 0.916696 0.399576 -0.002837
vn 0.916494 0.400038 -0.002836
vn 0.000000 0.000000 1.000000
vn 0.000000 0.000000 1.000000
vn -0.916494 0.400038 -0.002836
vn -0.916696 0.399576 -0.002837
vn 0.543251 -0.839569 -0.001479
vn 0.542530 -0.840035 -0.001477
vn 0.000000 0.000000 1.000000
vn 0.000000 0.000000 1.000000
vn -0.542530 -0.840035 -0.001477
vn -0.543251 -0.839569 -0.001479
vn 0.241930 -0.970294 -0.000541
vn 0.241700 -0.970351 -0.000541
vn 0.000000 0.000000 1.000000
vn 0.000000 0.000000 1.000000
vn -0.241700 -0.970351 -0.000541
vn -0.241930 -0.970294 -0.000541
vn 0.000000 0.000000 -0.000000
vn 0.000000 0.000000 -0.000000
vn 0.000000 0.000000 -1.000000
vn 0.000000 0.000000 -1.000000
vn 0.000000 -1.000000 0.000000
vn 0.000000 -1.000000 0.000000
vn 0.000000 0.000000 -1.000000
vn 0.000000 0.000000 -1.000000
vn 0.000000 -1.000000 0.000000
vn 0.000000 -1.000000 0.000000
vn 0.000000 0.000000 -1.000000
vn 0.000000 0.000000 -1.000000
vn 0.000000 0.000000 -1.000000
vn 0.000000 0.000000 -1.000000
vn 1.000000 0.000000 -0.000390
vn 1.000000 0.000000 -0.000390
vn 1.000000 0.000000 -0.000390
vn 1.000000 0.000000 -0.000390
vn 0.000000 -0.000000 1.000000
vn 0.000000 -0.000000 1.000000
vn 0.000000 -0.000000 1.000000
vn 0.000000 -0.000000 1.000000
vn -1.000000 -0.000000 -0.000390
vn -1.000000 -0.000000 -0.000390
vn -1.000000 -0.000000 -0.000390
vn -1.000000 -0.000000 -0.000390
s 1
g pCube1
usemtl initialShadingGroup
f 1/1/1 2/2/2 41/43/3 42/44/4
s off
f 5/7/5 6/8/6 136/142/7 137/143/8
f 145/151/9 146/152/10 147/153/11 148/154/12
s 2
f 2/2/13 116/121/14 117/122/15 41/43/16
s 3
f 87/90/17 1/1/18 42/44/19 86/89/20
s 1
f 3/3/21 4/4/22 11/13/23 12/14/24
s 2
f 4/4/25 132/137/26 133/139/27 11/13/28
s 3
f 140/146/29 71/74/30 3/3/31 12/14/32
s 1
f 8/10/33 7/9/34 6/8/35 5/7/36
s 3
f 138/144/37 8/10/38 5/7/39 137/143/40
s 2
f 7/9/41 135/141/42 136/142/43 6/8/44
s 1
f 10/12/45 9/11/46 7/9/34 8/10/33
s 3
f 139/145/47 10/12/48 8/10/38 138/144/37
s 2
f 9/11/49 134/140/50 135/141/42 7/9/41
s 1
f 12/14/24 11/13/23 9/11/46 10/12/45
s 3
f 140/146/29 12/14/32 10/12/48 139/145/47
s 2
f 11/13/28 133/139/27 134/140/50 9/11/49
s 1
f 14/16/51 13/15/52 23/25/53 24/26/54
s 3
f 75/78/55 14/16/56 24/26/57 74/77/58
s 2
f 13/15/59 128/133/60 129/134/61 23/25/62
s 1
f 16/18/63 15/17/64 29/31/65 30/32/66
s 3
f 79/82/67 16/18/68 30/32/69 78/81/70
s 2
f 15/17/71 124/129/72 125/130/73 29/31/74
s 1
f 18/20/75 17/19/76 35/37/77 36/38/78
s 3
f 83/86/79 18/20/80 36/38/81 82/85/82
s 2
f 17/19/83 120/125/84 121/126/85 35/37/86
s 1
f 20/22/87 19/21/88 4/4/22 3/3/21
s 3
f 72/75/89 20/22/90 3/3/31 71/73/30
s 2
f 19/21/91 131/136/92 132/138/26 4/4/25
s 1
f 22/24/93 21/23/94 19/21/88 20/22/87
s 3
f 73/76/95 22/24/96 20/22/90 72/75/89
s 2
f 21/23/97 130/135/98 131/136/92 19/21/91
s 1
f 24/26/54 23/25/53 21/23/94 22/24/93
s 3
f 74/77/58 24/26/57 22/24/96 73/76/95
s 2
f 23/25/62 129/134/61 130/135/98 21/23/97
s 1
f 26/28/99 25/27/100 13/15/52 14/16/51
s 3
f 76/79/101 26/28/102 14/16/56 75/78/55
s 2
f 25/27/103 127/132/104 128/133/60 13/15/59
s 1
f 28/30/105 27/29/106 25/27/100 26/28/99
s 3
f 77/80/107 28/30/108 26/28/102 76/79/101
s 2
f 27/29/109 126/131/110 127/132/104 25/27/103
s 1
f 30/32/66 29/31/65 27/29/106 28/30/105
s 3
f 78/81/70 30/32/69 28/30/108 77/80/107
s 2
f 29/31/74 125/130/73 126/131/110 27/29/109
s 1
f 32/34/111 31/33/112 15/17/64 16/18/63
s 3
f 80/83/113 32/34/114 16/18/68 79/82/67
s 2
f 31/33/115 123/128/116 124/129/72 15/17/71
s 1
f 34/36/117 33/35/118 31/33/112 32/34/111
s 3
f 81/84/119 34/36/120 32/34/114 80/83/113
s 2
f 33/35/121 122/127/122 123/128/116 31/33/115
s 1
f 36/38/78 35/37/77 33/35/118 34/36/117
s 3
f 82/85/82 36/38/81 34/36/120 81/84/119
s 2
f 35/37/86 121/126/85 122/127/122 33/35/121
s 1
f 38/40/123 37/39/124 17/19/76 18/20/75
s 3
f 84/87/125 38/40/126 18/20/80 83/86/79
s 2
f 37/39/127 119/124/128 120/125/84 17/19/83
s 1
f 40/42/129 39/41/130 37/39/124 38/40/123
s 3
f 85/88/131 40/42/132 38/40/126 84/87/125
s 2
f 39/41/133 118/123/134 119/124/128 37/39/127
s 1
f 42/44/4 41/43/3 39/41/130 40/42/129
s 3
f 86/89/20 42/44/19 40/42/132 85/88/131
s 2
f 41/43/16 117/122/15 118/123/134 39/41/133
s 19
f 116/120/135 2/6/136 53/55/137 115/119/138
s 1
f 2/6/2 1/5/1 54/56/139 53/55/140
s 20
f 1/5/141 87/91/142 88/92/143 54/56/144
s 19
f 111/115/145 45/47/146 56/58/147 110/114/148
s 20
f 46/48/149 92/96/150 93/97/151 55/57/152
s 1
f 45/47/153 46/48/154 55/57/155 56/58/156
s 19
f 112/116/157 47/49/158 45/47/146 111/115/145
s 20
f 48/50/159 91/95/160 92/96/150 46/48/149
s 1
f 47/49/161 48/50/162 46/48/154 45/47/153
s 19
f 113/117/163 49/51/164 47/49/158 112/116/157
s 20
f 50/52/165 90/94/166 91/95/160 48/50/159
s 1
f 49/51/167 50/52/168 48/50/162 47/49/161
s 19
f 114/118/169 51/53/170 49/51/164 113/117/163
s 20
f 52/54/171 89/93/172 90/94/166 50/52/165
s 1
f 51/53/173 52/54/174 50/52/168 49/51/167
s 19
f 115/119/138 53/55/137 51/53/170 114/118/169
s 20
f 54/56/144 88/92/143 89/93/172 52/54/171
s 1
f 53/55/140 54/56/139 52/54/174 51/53/173
f 56/58/156 55/57/155 44/46/175 43/45/176
s 19
f 110/114/148 56/58/147 43/45/177 109/113/178
s 20
f 55/57/152 93/97/151 94/98/179 44/46/180
s 24
f 109/113/181 43/45/182 57/59/183 108/112/184
s 25
f 43/45/185 44/46/186 58/60/187 57/59/188
s 26
f 44/46/189 94/98/190 95/99/191 58/60/192
s 24
f 108/112/184 57/59/183 59/61/193 107/111/194
s 25
f 57/59/188 58/60/187 60/62/195 59/61/196
s 26
f 58/60/192 95/99/191 96/100/197 60/62/198
s 24
f 107/111/194 59/61/193 61/63/199 106/110/200
s 25
f 59/61/196 60/62/195 62/64/201 61/63/202
s 26
f 60/62/198 96/100/197 97/101/203 62/64/204
s 24
f 106/110/200 61/63/199 63/65/205 105/109/206
s 25
f 61/63/202 62/64/201 64/66/207 63/65/208
s 26
f 62/64/204 97/101/203 98/102/209 64/66/210
s 24
f 105/109/206 63/65/205 65/67/211 104/108/212
s 25
f 63/65/208 64/66/207 66/68/213 65/67/214
s 26
f 64/66/210 98/102/209 99/103/215 66/68/216
s 24
f 104/108/212 65/67/211 67/69/217 103/107/218
s 25
f 65/67/214 66/68/213 68/70/219 67/69/220
s 26
f 66/68/216 99/103/215 100/104/221 68/70/222
s 24
f 103/107/218 67/69/217 69/71/223 102/106/224
s 25
f 67/69/220 68/70/219 70/72/225 69/71/226
s 26
f 68/70/222 100/104/221 101/105/227 70/72/228
s off
f 101/105/229 102/106/230 142/148/231 141/147/232
s 24
f 102/106/224 69/71/223 143/149/233 142/148/234
s 25
f 69/71/226 70/72/225 144/150/235 143/149/236
s 26
f 70/72/228 101/105/227 141/147/237 144/150/238
s off
f 141/147/239 142/148/240 146/152/241 145/151/242
f 142/148/243 143/149/244 147/153/245 146/152/246
f 143/149/247 144/150/248 148/154/249 147/153/250
f 144/150/251 141/147/252 145/151/253 148/154/254
